<svg xmlns="http://www.w3.org/2000/svg" width="16.409" height="23.79" viewBox="0 0 16.409 23.79">
  <g id="Group_2303" data-name="Group 2303" transform="translate(3197.844 -11.76)">
    <path id="Path_2175" data-name="Path 2175" d="M-3188.517,36.286a7.824,7.824,0,0,1-7.816-7.816,7.834,7.834,0,0,1,2.528-5.755,1.784,1.784,0,0,1,.323-.278c.042-.026.075-.046.107-.063a.387.387,0,0,1,.183-.046.388.388,0,0,1,.285.123.39.39,0,0,1,.046.472,1.786,1.786,0,0,0-.133,1.494,2.427,2.427,0,0,0,.282.588,5.76,5.76,0,0,1-.106-1.364,4.591,4.591,0,0,1,.527-1.936,12.537,12.537,0,0,1,1.3-1.928l.228-.3a9.222,9.222,0,0,0,1.988-3.6,3.153,3.153,0,0,0-.265-2.04.389.389,0,0,1,.092-.468.388.388,0,0,1,.256-.1.389.389,0,0,1,.221.068c2.8,1.922,2.115,4.993,1.614,7.236-.049.218-.1.429-.138.631a7.26,7.26,0,0,0-.162,1.065,1.759,1.759,0,0,0,.874,1.666,4.687,4.687,0,0,1-.345-.994,3.887,3.887,0,0,1-.013-1.634,3.449,3.449,0,0,1,1.83-2.4.384.384,0,0,1,.174-.041.387.387,0,0,1,.267.106.389.389,0,0,1,.09.437,1.862,1.862,0,0,0-.121,1.077l.006.036a3.187,3.187,0,0,0,.246.761,3.239,3.239,0,0,0,.875,1.224l.027.028a7.92,7.92,0,0,1,2.545,5.927A7.824,7.824,0,0,1-3188.517,36.286Z" transform="translate(-1.122 -1.126)" fill="#fe9634"/>
    <path id="Path_2177" data-name="Path 2177" d="M-3177.479,61.8a3.662,3.662,0,0,1-3.657-3.657,3.668,3.668,0,0,1,1.183-2.693.827.827,0,0,1,.151-.13.592.592,0,0,1,.052-.03.183.183,0,0,1,.086-.022.181.181,0,0,1,.133.058.182.182,0,0,1,.021.221.839.839,0,0,0-.062.7,1.131,1.131,0,0,0,.132.275,2.655,2.655,0,0,1-.049-.638,2.136,2.136,0,0,1,.246-.906,5.912,5.912,0,0,1,.607-.9l.107-.14a4.317,4.317,0,0,0,.93-1.684,1.467,1.467,0,0,0-.124-.955.182.182,0,0,1,.044-.219.179.179,0,0,1,.12-.045.183.183,0,0,1,.1.032c1.311.9.99,2.337.755,3.386-.022.1-.045.2-.064.3a3.3,3.3,0,0,0-.077.5.823.823,0,0,0,.409.779,2.173,2.173,0,0,1-.162-.465,1.82,1.82,0,0,1-.006-.765,1.615,1.615,0,0,1,.856-1.123.178.178,0,0,1,.081-.019.183.183,0,0,1,.125.05.183.183,0,0,1,.042.206.871.871,0,0,0-.056.5l0,.017a1.5,1.5,0,0,0,.115.356,1.513,1.513,0,0,0,.409.573l.013.013a3.707,3.707,0,0,1,1.191,2.772A3.661,3.661,0,0,1-3177.479,61.8Z" transform="translate(-12.412 -29.172)" fill="#ffd8b3"/>
    <path id="Path_2137" data-name="Path 2137" d="M-3180.7,70.156a7.82,7.82,0,0,1-7.812,7.816,7.823,7.823,0,0,1-7.816-7.816,7.3,7.3,0,0,1,.039-.746,7.823,7.823,0,0,0,7.778,7.066,7.82,7.82,0,0,0,7.778-7.086C-3180.713,69.634-3180.7,69.891-3180.7,70.156Z" transform="translate(-1.125 -42.812)" fill="#d86f19"/>
    <g id="Group_2302" data-name="Group 2302" transform="translate(-3197.455 12.151)">
      <path id="Path_2138" data-name="Path 2138" d="M-3192.905,48.6a.392.392,0,0,1,.072.424c-.008.005-.019.008-.026.013l-.108.062a1.767,1.767,0,0,0-.322.28,7.829,7.829,0,0,0-2.527,5.754,7.794,7.794,0,0,0,2.032,5.253,7.8,7.8,0,0,1-2.546-5.767,7.829,7.829,0,0,1,2.528-5.754,1.749,1.749,0,0,1,.321-.28l.108-.062a.385.385,0,0,1,.185-.046A.383.383,0,0,1-3192.905,48.6Z" transform="translate(3196.33 -39.429)" fill="#ffae6c"/>
      <path id="Path_2139" data-name="Path 2139" d="M-3177.02,14.226a5.554,5.554,0,0,0-.476-.365.4.4,0,0,0-.221-.067.38.38,0,0,0-.257.1.389.389,0,0,0-.093.468,3.144,3.144,0,0,1,.264,2.041,9.206,9.206,0,0,1-1.987,3.6l-.229.3a12.669,12.669,0,0,0-1.3,1.928,4.6,4.6,0,0,0-.524,1.936,5.634,5.634,0,0,0,.105,1.365,2.409,2.409,0,0,1-.283-.589,1.789,1.789,0,0,1,.134-1.494.391.391,0,0,0-.046-.473.383.383,0,0,0-.283-.123.169.169,0,0,0-.036,0,4.6,4.6,0,0,1,.419-1.139,12.664,12.664,0,0,1,1.3-1.928l.229-.3a9.21,9.21,0,0,0,1.987-3.6,3.155,3.155,0,0,0-.264-2.041.388.388,0,0,1,.092-.468.379.379,0,0,1,.257-.1.4.4,0,0,1,.221.067A5.035,5.035,0,0,1-3177.02,14.226Z" transform="translate(3185.87 -13.279)" fill="#ffae6c"/>
      <path id="Path_2140" data-name="Path 2140" d="M-3156.516,35.593s0,0,0,.005l-.015.008a3.45,3.45,0,0,0-1.83,2.4,3.935,3.935,0,0,0,.012,1.635,4.833,4.833,0,0,0,.347.992,1.744,1.744,0,0,1-.6-.566.833.833,0,0,0,.082.051,4.833,4.833,0,0,1-.347-.992c0-.026-.01-.054-.015-.08a3.908,3.908,0,0,1,0-1.556,3.423,3.423,0,0,1,.517-1.239,3.45,3.45,0,0,1,1.314-1.16.372.372,0,0,1,.175-.041.391.391,0,0,1,.267.105A.392.392,0,0,1-3156.516,35.593Z" transform="translate(3168.567 -29.452)" fill="#ffae6c"/>
    </g>
    <g id="Group_2302-2" data-name="Group 2302" transform="translate(-3185.442 20.895)">
      <ellipse id="Ellipse_11-2" data-name="Ellipse 11-2" cx="0.212" cy="0.295" rx="0.212" ry="0.295" transform="translate(0.94 1.444)" fill="#f6fafd"/>
      <ellipse id="Ellipse_12-2" data-name="Ellipse 12-2" cx="0.106" cy="0.148" rx="0.106" ry="0.148" transform="translate(0 0)" fill="#f6fafd"/>
      <ellipse id="Ellipse_13-2" data-name="Ellipse 13-2" cx="0.424" cy="0.591" rx="0.424" ry="0.591" transform="translate(0.183 0.24)" fill="#f6fafd"/>
    </g>
    <path id="Path_2176" data-name="Path 2176" d="M-3189.816,12.539c2.842,1.95,1.782,5.226,1.315,7.467a7.729,7.729,0,0,0-.169,1.125c-.108,2.067,2.185,2.47,2.295,2.552l0,0a.008.008,0,0,0,0,0,4.5,4.5,0,0,1-1-1.946,3.525,3.525,0,0,1-.012-1.47,3.042,3.042,0,0,1,1.623-2.13,2.254,2.254,0,0,0-.147,1.3s0,0,0,0,0,.021.005.031a.009.009,0,0,1,0,.005,3.58,3.58,0,0,0,.275.854,3.584,3.584,0,0,0,.951,1.335,7.525,7.525,0,0,1,2.463,5.682,7.427,7.427,0,0,1-7.425,7.426,7.426,7.426,0,0,1-7.426-7.426,7.4,7.4,0,0,1,2.41-5.477l0,0a1.432,1.432,0,0,1,.26-.228c.027-.017.052-.032.077-.046a2.647,2.647,0,0,0,1.553,3.643h0a3.381,3.381,0,0,1-.793-2.706,4.224,4.224,0,0,1,.485-1.774,14.212,14.212,0,0,1,1.444-2.108,9.722,9.722,0,0,0,2.105-3.818,3.546,3.546,0,0,0-.3-2.29Zm-4.5,9.052,4.5-9.831a.778.778,0,0,0-.512.192.78.78,0,0,0-.184.937,2.768,2.768,0,0,1,.232,1.791,8.954,8.954,0,0,1-1.915,3.436l-.045.059-.183.239a12.883,12.883,0,0,0-1.337,1.99q-.123.243-.218.483a.774.774,0,0,0-.321-.074h-.013c-.026,0-.052,0-.078,0a.768.768,0,0,0-.308.1c-.034.019-.069.039-.1.061l-.015.01a2.138,2.138,0,0,0-.384.327,8.225,8.225,0,0,0-2.643,6.032,8.214,8.214,0,0,0,8.205,8.205,8.214,8.214,0,0,0,8.2-8.205,8.274,8.274,0,0,0-2.658-6.2l-.028-.028a2.841,2.841,0,0,1-.782-1.076c-.005-.012-.01-.024-.015-.036a2.816,2.816,0,0,1-.218-.668h0a.026.026,0,0,0,0-.011.1.1,0,0,1,0-.021,1.489,1.489,0,0,1,.095-.859.779.779,0,0,0-.181-.874.776.776,0,0,0-.535-.213.774.774,0,0,0-.348.082,3.787,3.787,0,0,0-1.261,1.017c.407-2.127.556-4.805-2-6.561a.772.772,0,0,0-.44-.137Z" transform="translate(0 0)" fill="#2e2e2e"/>
    <path id="Path_2141" data-name="Path 2141" d="M-3182.606,50.49a.345.345,0,0,0-.123.031" transform="translate(-11.228 -28.772)" fill="none"/>
  </g>
</svg>
