<svg xmlns="http://www.w3.org/2000/svg" width="32.678" height="27.883" viewBox="0 0 32.678 27.883">
  <g id="Group_12668" data-name="Group 12668" transform="translate(1 1)">
    <path id="thumbs-up" d="M-72.4,423.252v-5.176a3.883,3.883,0,0,0-3.882-3.882l-5.176,11.647v14.235h14.6a2.589,2.589,0,0,0,2.588-2.2l1.786-11.647a2.589,2.589,0,0,0-2.172-2.947,2.648,2.648,0,0,0-.417-.03Z" transform="translate(93.101 -414.193)" fill="none" stroke="#a1a1a1" stroke-width="2"/>
    <path id="Path_2233" data-name="Path 2233" d="M-83.983,437.428h-3.882a2.588,2.588,0,0,1-2.588-2.588v-9.059a2.588,2.588,0,0,1,2.588-2.588h3.882Z" transform="translate(90.454 -411.546)" fill="none" stroke="#a1a1a1" stroke-width="2"/>
  </g>
</svg>
