<svg xmlns="http://www.w3.org/2000/svg" width="62.328" height="39.938" viewBox="0 0 62.328 39.938">
  <g id="Group_12663" data-name="Group 12663" transform="translate(-229.811 -250.602)">
    <circle id="Ellipse_60" data-name="Ellipse 60" cx="7.111" cy="7.111" r="7.111" transform="translate(250.919 270.391) rotate(-45)" fill="#dd272d"/>
    <g id="Group_12659" data-name="Group 12659" transform="translate(273.608 250.602)">
      <g id="Group_12657" data-name="Group 12657" transform="translate(0 5.356)">
        <path id="Path_2229" data-name="Path 2229" d="M318.983,290.426a2.5,2.5,0,0,1-1.941-4.085,16.96,16.96,0,0,0,.249-21.1,2.5,2.5,0,0,1,3.957-3.069,21.767,21.767,0,0,1,4.609,13.462,22.039,22.039,0,0,1-4.93,13.868A2.5,2.5,0,0,1,318.983,290.426Z" transform="translate(-316.48 -261.202)" fill="#dd272d"/>
      </g>
      <g id="Group_12658" data-name="Group 12658" transform="translate(8.374)">
        <path id="Path_2230" data-name="Path 2230" d="M334.93,290.54a1.878,1.878,0,0,1-1.466-3.051,27.48,27.48,0,0,0,5.99-17.1,27.143,27.143,0,0,0-5.723-16.761,1.878,1.878,0,1,1,2.97-2.3,30.861,30.861,0,0,1,6.509,19.06,31.248,31.248,0,0,1-6.812,19.444A1.874,1.874,0,0,1,334.93,290.54Z" transform="translate(-333.053 -250.602)" fill="#dd272d"/>
      </g>
    </g>
    <g id="Group_12662" data-name="Group 12662" transform="translate(229.811 250.604)">
      <g id="Group_12660" data-name="Group 12660" transform="translate(9.155 5.354)">
        <path id="Path_2231" data-name="Path 2231" d="M254.8,290.426a2.5,2.5,0,0,1-1.944-.923,22.038,22.038,0,0,1-4.93-13.868,21.767,21.767,0,0,1,4.609-13.462,2.5,2.5,0,1,1,3.956,3.069,16.961,16.961,0,0,0,.249,21.1,2.5,2.5,0,0,1-1.941,4.085Z" transform="translate(-247.928 -261.201)" fill="#dd272d"/>
      </g>
      <g id="Group_12661" data-name="Group 12661">
        <path id="Path_2232" data-name="Path 2232" d="M238.091,290.543a1.873,1.873,0,0,1-1.468-.705,31.248,31.248,0,0,1-6.812-19.444,30.861,30.861,0,0,1,6.509-19.06,1.878,1.878,0,1,1,2.97,2.3,27.144,27.144,0,0,0-5.723,16.761,27.48,27.48,0,0,0,5.99,17.1,1.878,1.878,0,0,1-1.466,3.051Z" transform="translate(-229.811 -250.607)" fill="#dd272d"/>
      </g>
    </g>
  </g>
</svg>
